<svg xmlns="http://www.w3.org/2000/svg" width="32" height="32" viewBox="0 0 32 32" id="filter-add">
  <path fill="currentColor" d="M27.5,12.3h-3.8v3.8h-1.9v-3.8H18v-1.9h3.8V6.6h1.9v3.8h3.8V12.3z" />
  <path fill="currentColor" d="M22.8,4c2,0,3.8,0.8,5.2,2.2c1.4,1.4,2.2,3.2,2.2,5.2s-0.8,3.8-2.2,5.2c-1.4,1.4-3.2,2.2-5.2,2.2s-3.8-0.8-5.2-2.2
	c-1.4-1.4-2.2-3.2-2.2-5.2s0.8-3.8,2.2-5.2C18.9,4.8,20.8,4,22.8,4 M22.8,2.1c-5.1,0-9.2,4.1-9.2,9.2s4.1,9.2,9.2,9.2
	s9.2-4.1,9.2-9.2S27.9,2.1,22.8,2.1z" />
  <path fill="currentColor" d="M12.8,11.4H0L8.5,22v5.7l5.7,2.1V22l2.3-2.9C14.2,17.3,12.8,14.5,12.8,11.4z" />
  <path fill="currentColor" class="st0" d="M27.5,12.3H18v-1.9h9.5V12.3z" />
</svg>